<svg height="666.667" viewBox="0 0 500 500" width="666.667" xmlns="http://www.w3.org/2000/svg"><path d="m121 70c-15.2 1.6-29.7 8.6-40.9 20-7.7 7.7-12 14.5-15.8 25-2.4 6.8-2.7 9.1-3.1 24.2l-.4 16.6-6.1 1.1c-8.9 1.6-15.8 5.3-22 12.1-9.9 10.6-9.8 10.2-9.5 59.4l.3 42.1 2.7 5.7c5.3 11.5 16.5 19.8 28.8 21.6l5.5.7.3 62.7.2 62.6 2.9 3.1c2.7 2.9 5.2 3.7 10.3 3.2 2.4-.3 112.6-38.5 120.8-41.9l6.5-2.7 90-.5 90-.5 7-2.3c11.3-3.8 19.3-8.8 28-17.6 14.1-14.1 19.1-27 20.2-51.7l.6-14.7 4.9-.5c15.4-1.9 28.8-15 31.7-31.1 1.4-7.7 1.4-68.9 0-77.6-1.4-8.8-3.9-14-9.5-20.1-6.9-7.3-13.3-10.6-23.6-12.4l-3.8-.6v-7.7c0-11.9-1.8-25-4.6-33.3-6.5-19.9-23.6-36.2-44.8-42.8l-8.1-2.6-125.5-.1c-69-.1-128.9.2-133 .6zm219.5 98.5c18.2 4.8 32.3 18.8 38.1 38.1 2.6 8.4 2.6 33.4 0 41.9-5.3 17.5-17.6 30.6-34.6 36.7l-6.5 2.3h-178l-6.5-2.3c-12-4.3-21-11.5-28.1-22.4-6.5-10.1-7.9-16.4-7.9-35.2 0-10.3.5-17.9 1.4-21.1 4.8-18.1 19.7-32.9 38.2-38 3.9-1.1 22.3-1.3 91.4-1.4 74.7-.1 87.4.1 92.5 1.4z"/><path d="m177.4 196c-7.5 3-13.7 8.9-17.6 16.8-2.9 5.9-3.3 7.6-3.3 14.7 0 9.6 2.8 16.4 9.7 23.4 6.7 6.9 13.5 9.6 23.8 9.6 10.1 0 15.4-2 22.5-8.6 17.3-16 13-45.2-8.1-54.9-7.1-3.3-20.1-3.7-27-1zm119.7-.9c-6.6 2-14.2 8-18.6 14.9-7.4 11.7-5.9 28.6 3.6 39.3 16.1 18.4 45.3 14.1 55.8-8.2 3.5-7.6 3.7-20.1.4-27.4-3.2-7-11.7-14.9-18.6-17.5-6.2-2.4-16.4-2.8-22.6-1.1z"/></svg>