<svg height="104.558" viewBox="0 0 128 104.558" width="128" xmlns="http://www.w3.org/2000/svg"><g transform="translate(-64.954 -100)"><path d="m183.139 123.428v-.243a23.21 23.21 0 0 0 -23.184-23.185h-62a23.211 23.211 0 0 0 -23.184 23.184v.243a15.641 15.641 0 0 0 -9.815 14.5v17.012a15.642 15.642 0 0 0 9.815 14.5v26.417a8.7 8.7 0 0 0 11.545 8.224l29.914-10.34.5-.172.458-.258a3.448 3.448 0 0 1 1.69-.444h41.083a23.21 23.21 0 0 0 23.184-23.184v-.243a15.642 15.642 0 0 0 9.815-14.5v-17.013a15.641 15.641 0 0 0 -9.821-14.498z" fill="#fff"/><g fill="#be1d25"><circle cx="144.069" cy="146.432" r="8.702"/><path d="m94.31 209.6a2.9 2.9 0 0 0 .952-.162l29.914-10.34a9.244 9.244 0 0 1 4.541-1.192h41.083a17.383 17.383 0 0 0 17.383-17.383v-4.923a9.814 9.814 0 0 0 9.817-9.818v-17.012a9.814 9.814 0 0 0 -9.815-9.815v-4.927a17.383 17.383 0 0 0 -17.385-17.383h-62a17.383 17.383 0 0 0 -17.383 17.383v4.927a9.814 9.814 0 0 0 -9.817 9.815v17.012a9.814 9.814 0 0 0 9.815 9.815v31.1a2.9 2.9 0 0 0 2.895 2.903zm11.49-54.191a13.781 13.781 0 0 1 13.74-13.74h40.523a13.781 13.781 0 0 1 13.74 13.74v3.734a13.781 13.781 0 0 1 -13.74 13.74h-40.526a13.781 13.781 0 0 1 -13.74-13.74z" transform="translate(-10.844 -10.844)"/><circle cx="8.702" cy="8.702" r="8.702" transform="matrix(.97324709 -.22976098 .22976098 .97324709 103.37 139.962)"/></g></g></svg>