<svg xmlns="http://www.w3.org/2000/svg" xmlns:xlink="http://www.w3.org/1999/xlink" width="500" height="500" viewBox="0 0 500 500">
  <defs>
    <clipPath id="clip-Artboard_1">
      <rect width="500" height="500"/>
    </clipPath>
  </defs>
  <g id="Artboard_1" data-name="Artboard – 1" clip-path="url(#clip-Artboard_1)">
    <g id="Group_1910" data-name="Group 1910" transform="translate(1390 -1112)">
      <rect id="Rectangle_299" data-name="Rectangle 299" width="500" height="500" rx="100" transform="translate(-1390 1112)" fill="none"/>
      <g id="Group_107" data-name="Group 107" transform="translate(-1390 1112)">
        <path id="Path_111" data-name="Path 111" d="M404.054,167.219v-.7A66.6,66.6,0,0,0,337.534,100h-177.9a66.6,66.6,0,0,0-66.521,66.521v.7a44.878,44.878,0,0,0-28.16,41.6v48.811a44.88,44.88,0,0,0,28.16,41.6v75.8a24.95,24.95,0,0,0,33.124,23.6l85.829-29.668,1.426-.493,1.314-.741a9.893,9.893,0,0,1,4.85-1.274H337.534a66.6,66.6,0,0,0,66.52-66.521v-.7a44.88,44.88,0,0,0,28.16-41.6V208.818A44.878,44.878,0,0,0,404.054,167.219Z" fill="#fff"/>
        <g id="Group_106" data-name="Group 106">
          <circle id="Ellipse_30" data-name="Ellipse 30" cx="24.968" cy="24.968" r="24.968" transform="translate(266.986 208.256)" fill="#be1d25"/>
          <path id="Path_112" data-name="Path 112" d="M118.069,383.355a8.332,8.332,0,0,0,2.731-.464l85.829-29.668a26.524,26.524,0,0,1,13.028-3.421H337.534a49.875,49.875,0,0,0,49.875-49.876V285.789h0a28.16,28.16,0,0,0,28.16-28.16V208.818a28.16,28.16,0,0,0-28.16-28.16h0V166.521a49.875,49.875,0,0,0-49.875-49.876h-177.9a49.876,49.876,0,0,0-49.876,49.876v14.137h0a28.16,28.16,0,0,0-28.16,28.16v48.811a28.16,28.16,0,0,0,28.16,28.16h0v89.237A8.33,8.33,0,0,0,118.069,383.355Zm32.957-155.488a39.54,39.54,0,0,1,39.424-39.424H306.718a39.54,39.54,0,0,1,39.424,39.424v10.714A39.539,39.539,0,0,1,306.718,278H190.45a39.539,39.539,0,0,1-39.424-39.423Z" fill="#be1d25"/>
          <circle id="Ellipse_31" data-name="Ellipse 31" cx="24.968" cy="24.968" r="24.968" transform="translate(175.178 214.66) rotate(-13.283)" fill="#be1d25"/>
        </g>
      </g>
    </g>
  </g>
</svg>
